<?xml version="1.0" encoding="utf-8"?>
<!-- Generator: Adobe Illustrator 25.0.1, SVG Export Plug-In . SVG Version: 6.00 Build 0)  -->
<svg version="1.1" id="레이어_1" xmlns="http://www.w3.org/2000/svg" xmlns:xlink="http://www.w3.org/1999/xlink" x="0px"
	 y="0px" viewBox="0 0 178 190" style="enable-background:new 0 0 178 190;" xml:space="preserve">
<g>
	<linearGradient id="SVGID_1_" gradientUnits="userSpaceOnUse" x1="65.9253616" y1="95.0958862" x2="132.5084381" y2="161.6789703">
		<stop  offset="0" style="stop-color:#E73828"/>
		<stop  offset="1" style="stop-color:#F6CC6B"/>
	</linearGradient>
	<path style="fill:url(#SVGID_1_);" d="M67.8471375,184.621521c0,0-56.1557961-2.1885223-29.6327972-61.3672028
		c26.5233994-59.1763153,79.0863953-81.1548004,79.0863953-81.1548004l-1.8129959,69.8500977l-17.8798904,40.039093
		L67.8471375,184.621521z"/>
	
		<linearGradient id="SVGID_2_" gradientUnits="userSpaceOnUse" x1="102.0639191" y1="164.4329376" x2="16.3144741" y2="132.9330597">
		<stop  offset="0" style="stop-color:#E73828"/>
		<stop  offset="1" style="stop-color:#F6CC6B"/>
	</linearGradient>
	<path style="fill:url(#SVGID_2_);" d="M95.6635361,130.0248108c0,0-4.2597961-12.7558975-17.5727997-6.2880936
		c-13.3119965,6.4706955-28.445797,9.9394913-33.731884,49.301796l9.6195869,10.7118988l28.5454102-10.3242035
		l14.6493912-19.9960938L95.6635361,130.0248108z"/>
	<linearGradient id="SVGID_3_" gradientUnits="userSpaceOnUse" x1="22.1169395" y1="48.6543884" x2="89.7826157" y2="92.6534348">
		<stop  offset="0" style="stop-color:#E73828"/>
		<stop  offset="1" style="stop-color:#F6CC6B"/>
	</linearGradient>
	<path style="fill:url(#SVGID_3_);" d="M3.0209417,92.2704163c0,0-0.7920001-43.8876991,45.9594994-48.4540977
		c0,0,26.6771965-3.8047028,26.6771965-21.8164005c0,0,44.6382141,30.950201,6.6040039,72.8086014
		C44.2255402,136.6664124,5.9267416,101.6586151,3.0209417,92.2704163z"/>
	<linearGradient id="SVGID_4_" gradientUnits="userSpaceOnUse" x1="78.2987213" y1="94.9737473" x2="19.0384331" y2="35.713459">
		<stop  offset="0" style="stop-color:#E73828"/>
		<stop  offset="1" style="stop-color:#F6CC6B"/>
	</linearGradient>
	<path style="fill:url(#SVGID_4_);" d="M34.7953415,114.1176147c13.827198,2.6660004,30.671402-0.8282013,47.466301-19.3090973
		C97.885643,77.6132202,99.5585403,62.2577171,96.1059418,50.1337166
		C74.0409393,58.3944168,38.82024,65.5253143,34.7953415,114.1176147z"/>
	
		<linearGradient id="SVGID_5_" gradientUnits="userSpaceOnUse" x1="21.4941654" y1="109.2311172" x2="127.7448654" y2="131.9811707">
		<stop  offset="0" style="stop-color:#E73828"/>
		<stop  offset="1" style="stop-color:#F6CC6B"/>
	</linearGradient>
	<path style="fill:url(#SVGID_5_);" d="M12.6869411,138.6332092c0,0,42.2939987-63.5434952,74.0141983-45.5542068
		c0,0,25.9804001,22.9194107-24.7719994,38.0083084C61.929142,131.0873108,45.3134422,135.4408112,12.6869411,138.6332092z"/>
	<linearGradient id="SVGID_6_" gradientUnits="userSpaceOnUse" x1="96.7814407" y1="119.1506653" x2="-9.7191153" y2="113.6506424">
		<stop  offset="0" style="stop-color:#E73828"/>
		<stop  offset="1" style="stop-color:#F6CC6B"/>
	</linearGradient>
	<path style="fill:url(#SVGID_6_);" d="M91.7274399,100.0394135c-11.1128006-0.4852982-37.1092987,2.1797028-50.3241997,35.101593
		c13.6288986-2.1405945,20.5264015-3.9462891,20.5264015-3.9462891
		C95.2685394,121.2826157,95.4960403,107.9926147,91.7274399,100.0394135z"/>
	<linearGradient id="SVGID_7_" gradientUnits="userSpaceOnUse" x1="79.5241318" y1="98.0491867" x2="155.6047668" y2="98.0491867">
		<stop  offset="0" style="stop-color:#E73828"/>
		<stop  offset="1" style="stop-color:#F6CC6B"/>
	</linearGradient>
	<path style="fill:url(#SVGID_7_);" d="M51.1576424,186.5814209c0,0,131.6450043,15.4267883,120.2846985-83.4531021
		c0,0-3.1333008-16.3149033-11.0298004-34.7124023c-4.5336914-10.5625-15.1049957-45.2636986,5.1362-59.7714996
		c0,0-119.9272003,5.5137005-72.1987,118.5278015c0,0,13.5425034,26.0391006-40.835495,54.330101
		C52.5145416,181.5023193,46.626442,185.1303101,51.1576424,186.5814209z"/>
	<linearGradient id="SVGID_8_" gradientUnits="userSpaceOnUse" x1="103.2919388" y1="97.6683121" x2="169.7918396" y2="97.1683121">
		<stop  offset="0" style="stop-color:#E73828"/>
		<stop  offset="1" style="stop-color:#F6CC6B"/>
	</linearGradient>
	<path style="fill:url(#SVGID_8_);" d="M171.3817444,103.273819c0,0-3.1328125-16.3159027-11.0288086-34.7114029
		c-4.5326996-10.5625-15.1049957-45.2636986,5.1352997-59.7714996c0,0-62.2362976,30.0683994-14.1972961,104.3266983
		c0,0,28.5507965,52.0614929-57.0346985,73.0283051H94.26754
		C131.5224457,181.5668182,178.3500366,163.9203186,171.3817444,103.273819z"/>
	<linearGradient id="SVGID_9_" gradientUnits="userSpaceOnUse" x1="55.2886658" y1="179.7032166" x2="8.2640362" y2="179.7032166">
		<stop  offset="0" style="stop-color:#E73828"/>
		<stop  offset="1" style="stop-color:#F6CC6B"/>
	</linearGradient>
	<path style="fill:url(#SVGID_9_);" d="M51.1576424,186.5814209h-27.644001c0,0,6.3437004-17.4111023,23.2616997-13.0576019
		C46.775341,173.523819,59.8192406,178.5336151,51.1576424,186.5814209z"/>
</g>
</svg>
