<svg xmlns="http://www.w3.org/2000/svg" viewBox="0 0 156 160.5" enable-background="new 0 0 156 160.5"><path d="M153.5 77.501h-144.965l73.232-73.232c.977-.976.977-2.559 0-3.535-.977-.977-2.56-.977-3.535 0l-77.497 77.497c-.117.117-.222.246-.315.384l-.1.184-.13.246-.078.251-.064.215c-.032.162-.049.325-.049.49v.004l.024.246c-.072.72.156 1.466.708 2.018l77.5 77.5c.488.488 1.128.732 1.768.732s1.279-.244 1.768-.732c.977-.977.977-2.559 0-3.535l-73.732-73.732h145.465c1.381 0 2.5-1.119 2.5-2.5s-1.119-2.5-2.5-2.5z"/></svg>