<svg xmlns="http://www.w3.org/2000/svg" viewBox="0 0 1013.4119873 506.7059937" enable-background="new 0 0 1013.4119873 506.7059937"><circle fill="#1C69F5" cx="253.352" cy="253.353" r="253.353"/><path fill="#fff" d="M316.62 251.489l-122.994-122.994c-.976-.977-2.56-.977-3.535 0-.977.976-.977 2.559 0 3.535l121.323 121.323-121.323 121.323c-.977.976-.977 2.559 0 3.535.488.488 1.128.732 1.768.732s1.28-.244 1.768-.732l122.994-122.994c.513-.513.749-1.193.723-1.865.026-.672-.21-1.352-.723-1.865z"/><circle fill="#E4E6EB" cx="760.057" cy="253.353" r="253.353"/><path fill="#fff" d="M823.325 251.489l-122.994-122.994c-.976-.977-2.56-.977-3.535 0-.977.976-.977 2.559 0 3.535l121.323 121.323-121.323 121.323c-.977.976-.977 2.559 0 3.535.488.488 1.128.732 1.768.732s1.28-.244 1.768-.732l122.994-122.994c.513-.513.749-1.193.723-1.865.026-.672-.21-1.352-.723-1.865z"/></svg>