<svg xmlns="http://www.w3.org/2000/svg" viewBox="0 0 402.1140137 36.5" enable-background="new 0 0 402.1140137 36.5"><path d="M.004 3.431h24.081v3h-24.081zM.004 16.724h24.081v3h-24.081zM.004 30.018h24.081v3h-24.081zM.004 10.078h32.47v3h-32.47zM.004 23.371h32.47v3h-32.47zM178.32 3.431h24.08v3h-24.08zM178.32 16.724h24.08v3h-24.08zM178.32 30.018h24.08v3h-24.08zM169.931 10.078h32.47v3h-32.47zM169.931 23.371h32.47v3h-32.47zM85.49 3.431h24.081v3h-24.081zM85.49 16.724h24.081v3h-24.081zM85.49 30.018h24.081v3h-24.081zM81.295 10.078h32.47v3h-32.47zM81.295 23.371h32.47v3h-32.47zM240.399 3.68h-3.92l-.713 1.705 3.766.457c-1.466 3.681-2.997 7.378-4.533 11.049l-.892 2.131c-1.563 3.735-3.123 7.423-4.715 11.049l-4.148.457-.713 1.705h11.931l.713-1.705-3.766-.457c1.466-3.681 2.996-7.378 4.533-11.049l.892-2.131c1.563-3.735 3.123-7.423 4.715-11.049l4.148-.457.713-1.705h-8.011zM298.6 16.841c0-3.675.016-7.304.09-10.871h6.474l.962 5.352h2.341l-.335-7.443h-22.83l-.334 7.443h2.341l.962-5.352h6.474c.074 3.621.09 7.259.09 10.871v1.311h-10.007v1h10.007c0 3.585-.017 7.126-.088 10.608l-4.301.461v1.672h12.544v-1.672l-4.301-.461c-.072-3.534-.089-7.082-.089-10.608h9.923v-1h-9.924v-1.311zM361.681.25v36.5h40.438v-36.5h-40.438zm38.864 34.927h-37.291v-6.3l11.208-11.208 10.985 10.986.582.488 6.881-6.88 7.635 7.635v5.279zm0-7.606l-7.1-7.101-.582-.489-6.881 6.881-10.993-10.993-.582-.474-11.153 11.155v-24.727h37.291v25.748zM391.087 12.979c1.539 0 2.792-1.252 2.792-2.792s-1.253-2.792-2.792-2.792-2.792 1.252-2.792 2.792 1.253 2.792 2.792 2.792zm0-4.01c.672 0 1.219.547 1.219 1.219s-.547 1.219-1.219 1.219-1.219-.547-1.219-1.219.547-1.219 1.219-1.219z"/></svg>