<svg xmlns="http://www.w3.org/2000/svg" viewBox="0 0 159 37.5800018" enable-background="new 0 0 159 37.5800018"><g fill="#231815"><path d="M57.706 8.558c.059.835.088 1.712.088 2.629 0 .918-.029 1.812-.088 2.682-.094 1.53-.597 2.785-1.509 3.768-.912.982-2.203 1.474-3.873 1.474-1.494 0-2.75-.468-3.768-1.403-1.018-.935-1.568-2.22-1.65-3.856-.047-.835-.071-1.732-.071-2.691 0-.959.023-1.832.071-2.62.082-1.541.629-2.803 1.641-3.785 1.012-.982 2.27-1.473 3.776-1.473 1.576 0 2.844.503 3.803 1.509.959 1.006 1.485 2.262 1.579 3.768zm-3.512 4.923c.047-.729.073-1.556.079-2.479.006-.923-.003-1.65-.026-2.179-.035-.729-.218-1.376-.547-1.941-.33-.565-.788-.847-1.376-.847-.541 0-.988.253-1.341.759s-.553 1.182-.6 2.029c-.035.6-.05 1.415-.044 2.444.006 1.03.02 1.791.044 2.285.047.847.244 1.526.591 2.038.347.512.797.768 1.35.768.588 0 1.032-.238 1.332-.715.3-.477.479-1.197.538-2.162zM59.771 18.828v-15.282h5.806c1.823 0 3.115.532 3.873 1.597.759 1.065 1.138 2.126 1.138 3.185 0 1.177-.388 2.268-1.165 3.273-.776 1.006-2.059 1.509-3.847 1.509h-2.223v4.482c0 .365-.141.662-.424.891-.282.229-.612.344-.988.344h-2.171zm7.217-10.5c0-.647-.153-1.147-.459-1.5-.306-.353-.671-.529-1.094-.529h-2.082v4.041h2.082c.435 0 .803-.173 1.103-.521.3-.347.45-.844.45-1.491zM81.793 14.417c0 1.4-.494 2.532-1.482 3.397-.988.865-2.312 1.297-3.97 1.297-1.459 0-2.682-.397-3.67-1.191s-1.482-1.891-1.482-3.291h3.706c.059.612.226 1.056.503 1.332.276.277.65.415 1.121.415.541 0 .971-.176 1.288-.529.318-.353.476-.806.476-1.359 0-.576-.124-1.012-.371-1.306-.247-.294-.559-.482-.935-.565l-1.676-.371c-1.247-.282-2.23-.809-2.947-1.579-.718-.77-1.076-1.679-1.076-2.726 0-1.329.462-2.441 1.385-3.335.923-.894 2.215-1.341 3.873-1.341 1.282 0 2.409.391 3.379 1.174.971.783 1.485 1.773 1.544 2.973h-3.529c-.106-.506-.3-.876-.582-1.112-.282-.235-.606-.353-.971-.353-.506 0-.903.165-1.191.494-.288.33-.432.776-.432 1.341 0 .471.132.853.397 1.147.265.294.579.488.944.582l1.641.388c1.282.318 2.279.818 2.991 1.5.712.682 1.067 1.688 1.067 3.018zM52.636 26.627c.033.472.05.966.05 1.485 0 .518-.017 1.023-.05 1.515-.053.864-.337 1.573-.852 2.128-.515.555-1.244.832-2.187.832-.844 0-1.553-.264-2.128-.792-.575-.528-.885-1.254-.932-2.177-.027-.472-.04-.978-.04-1.52 0-.541.013-1.035.04-1.48.046-.87.355-1.583.927-2.137.571-.555 1.282-.832 2.133-.832.89 0 1.606.284 2.147.852.541.568.839 1.277.892 2.128zm-1.983 2.78c.026-.412.041-.879.045-1.4.003-.521-.002-.932-.015-1.231-.02-.412-.123-.777-.309-1.096-.186-.319-.445-.478-.777-.478-.306 0-.558.143-.757.429-.199.286-.312.667-.339 1.146-.02.339-.028.799-.025 1.38.003.581.012 1.011.025 1.291.026.478.138.862.334 1.151.196.289.45.434.762.434.332 0 .583-.135.752-.403.169-.269.271-.676.304-1.221zM53.643 34.629v-7.245l-.01-.752c-.007-.262-.023-.477-.05-.643h1.973l.025.219.015.219c.12-.133.289-.249.508-.349.219-.1.448-.15.688-.15.81 0 1.383.279 1.719.837.335.558.503 1.355.503 2.392 0 .97-.146 1.754-.438 2.352-.292.598-.9.897-1.824.897-.259 0-.482-.047-.668-.14-.186-.093-.329-.193-.429-.299v2.003c0 .206-.073.367-.219.483-.146.116-.326.174-.538.174h-1.256zm3.358-5.471c0-.598-.058-1.041-.174-1.33-.116-.289-.284-.434-.503-.434-.199 0-.36.136-.483.408-.123.273-.184.724-.184 1.355 0 .624.061 1.076.184 1.355.123.279.284.419.483.419.213 0 .379-.135.498-.404.12-.269.179-.726.179-1.37zM61.495 29.736c0 .405.075.733.224.981.149.249.367.374.653.374l.239-.03c.08-.02.153-.056.219-.109s.123-.121.169-.204c.046-.083.076-.191.09-.324h1.993c-.027.319-.118.605-.274.857-.156.252-.357.468-.603.648-.246.179-.527.315-.842.408-.316.093-.643.14-.982.14-.478 0-.897-.081-1.256-.244-.359-.163-.658-.389-.897-.678-.239-.289-.419-.631-.538-1.027-.12-.395-.179-.829-.179-1.3 0-.498.065-.947.194-1.345.13-.399.315-.737.558-1.016.242-.279.535-.493.877-.643.342-.149.726-.224 1.151-.224.399 0 .767.07 1.106.209.339.14.633.34.882.603.249.262.443.578.583.947.14.369.209.782.209 1.241v.737h-3.577zm1.594-1.136c.007-.126-.002-.261-.025-.404-.023-.143-.065-.277-.125-.403s-.143-.231-.249-.314c-.106-.083-.239-.124-.399-.124-.146 0-.269.037-.369.11-.1.073-.181.169-.244.289-.063.12-.11.254-.14.404-.03.149-.045.297-.045.443h1.594zM65.81 32.426v-4.993l-.01-.692c-.007-.203-.027-.424-.06-.663h1.973l.06.229.02.169c.106-.126.267-.236.483-.329.216-.093.437-.14.663-.14.704 0 1.247.218 1.629.653.382.435.573 1.005.573 1.709v3.398c0 .206-.073.367-.219.483-.146.116-.326.174-.538.174h-1.246v-3.837c0-.345-.055-.618-.165-.817-.11-.199-.274-.299-.493-.299-.206 0-.367.103-.483.309-.116.206-.174.475-.174.807v3.179c0 .206-.073.367-.219.483-.146.116-.326.174-.538.174h-1.256zM74.809 32.426v-8.63h3.279c1.03 0 1.759.301 2.187.902.428.601.643 1.201.643 1.799 0 .664-.219 1.28-.658 1.849-.438.568-1.162.852-2.172.852h-1.256v2.531c0 .206-.08.374-.239.503-.159.129-.345.194-.558.194h-1.226zm4.076-5.929c0-.365-.086-.648-.259-.847-.173-.199-.379-.299-.618-.299h-1.176v2.282h1.176c.246 0 .453-.098.623-.294.169-.196.254-.477.254-.842zM86.727 29.228c0 1.116-.211 1.936-.633 2.461-.422.525-1.115.787-2.078.787-.917 0-1.598-.264-2.043-.792s-.667-1.347-.667-2.456.241-1.925.722-2.447c.481-.521 1.144-.782 1.988-.782.85 0 1.515.261 1.993.782.478.522.717 1.337.717 2.447zm-2.003 0c0-.631-.07-1.083-.209-1.355-.14-.272-.306-.408-.498-.408-.206 0-.376.136-.508.408-.133.273-.199.724-.199 1.355 0 .565.063 1.003.189 1.315.126.312.299.468.518.468.233 0 .408-.156.528-.468.12-.312.179-.751.179-1.315zM87.504 32.426v-5.122l-.015-.618c-.01-.206-.028-.405-.055-.598h1.903l.055.244.015.214c.133-.173.314-.304.543-.394.229-.09.447-.135.653-.135.259 0 .515.045.767.135.252.09.472.271.658.543l-.628 1.535c-.146-.272-.316-.458-.508-.558-.193-.1-.365-.15-.518-.15-.259 0-.467.136-.623.409-.156.272-.234.598-.234.977v2.86c0 .206-.073.367-.219.483-.146.116-.326.174-.538.174h-1.256zM92.636 26.308v-1.864h2.003v1.864h1.016v.717c0 .193-.048.332-.145.419-.096.086-.241.13-.433.13h-.438v2.95c0 .173.03.304.09.394.06.09.143.135.249.135h.678v.837c0 .193-.048.332-.145.419-.096.086-.241.13-.433.13h-.498c-.624 0-1.105-.17-1.44-.508-.336-.339-.503-.777-.503-1.315v-3.039h-.04c-.193 0-.337-.043-.433-.13-.096-.086-.145-.226-.145-.419v-.717h.618zM99.467 25.007c-.09.083-.231.124-.423.124h-.13c-.113 0-.201.047-.264.14-.063.093-.095.226-.095.399v.638h1.046v.717c0 .193-.048.332-.144.419-.097.086-.241.13-.434.13h-.468v4.165c0 .206-.08.374-.239.503-.159.13-.345.194-.558.194h-1.216v-4.863h-.01c-.193 0-.337-.043-.433-.13-.097-.086-.145-.226-.145-.419v-.717h.588v-.737c0-.538.184-.975.553-1.31.369-.335.835-.503 1.4-.503h1.106v.837c0 .193-.045.33-.135.414zM105.291 29.228c0 1.116-.211 1.936-.633 2.461-.422.525-1.115.787-2.078.787-.917 0-1.598-.264-2.043-.792s-.667-1.347-.667-2.456.241-1.925.722-2.447c.481-.521 1.144-.782 1.988-.782.85 0 1.515.261 1.993.782.478.522.717 1.337.717 2.447zm-2.003 0c0-.631-.07-1.083-.209-1.355-.14-.272-.306-.408-.498-.408-.206 0-.376.136-.508.408-.133.273-.199.724-.199 1.355 0 .565.063 1.003.189 1.315.126.312.299.468.518.468.233 0 .408-.156.528-.468.12-.312.179-.751.179-1.315zM106.009 32.426v-8.58h2.023v7.883c0 .206-.08.374-.239.503-.159.129-.345.194-.558.194h-1.226zM111.011 24.823c0 .173-.05.302-.149.388-.1.086-.252.13-.458.13h-1.435v-1.824h2.043v1.306zm-2.023 7.603v-6.288h2.013v5.59c0 .206-.08.374-.239.503-.159.129-.346.194-.558.194h-1.216zM117.19 29.228c0 1.116-.211 1.936-.633 2.461-.422.525-1.115.787-2.078.787-.917 0-1.598-.264-2.043-.792s-.667-1.347-.667-2.456.241-1.925.722-2.447c.481-.521 1.144-.782 1.988-.782.85 0 1.515.261 1.993.782.478.522.717 1.337.717 2.447zm-2.003 0c0-.631-.07-1.083-.209-1.355-.14-.272-.306-.408-.498-.408-.206 0-.376.136-.508.408-.133.273-.199.724-.199 1.355 0 .565.063 1.003.189 1.315.126.312.299.468.518.468.233 0 .408-.156.528-.468.12-.312.179-.751.179-1.315zM126.218 29.935c0 .791-.279 1.43-.837 1.918-.558.488-1.305.732-2.242.732-.824 0-1.515-.224-2.073-.673-.558-.448-.837-1.068-.837-1.858h2.093c.033.345.128.596.284.752.156.156.367.234.633.234.305 0 .548-.1.727-.299.179-.199.269-.455.269-.767 0-.325-.07-.571-.209-.737-.14-.166-.316-.272-.528-.319l-.947-.209c-.704-.159-1.259-.457-1.664-.892s-.608-.948-.608-1.54c0-.751.26-1.379.782-1.884.522-.505 1.251-.757 2.187-.757.724 0 1.36.221 1.908.663.548.442.839 1.001.872 1.679h-1.993c-.06-.286-.169-.495-.329-.628-.159-.133-.342-.199-.548-.199-.286 0-.51.093-.673.279-.163.186-.244.438-.244.757 0 .266.075.482.224.648.15.166.327.276.533.329l.927.219c.724.179 1.287.462 1.689.847.402.385.603.953.603 1.704zM128.709 29.736c0 .405.075.733.224.981.15.249.367.374.653.374l.239-.03c.08-.02.153-.056.219-.109s.123-.121.17-.204c.046-.083.076-.191.09-.324h1.993c-.027.319-.118.605-.274.857-.156.252-.357.468-.603.648-.246.179-.527.315-.842.408-.316.093-.643.14-.981.14-.478 0-.897-.081-1.256-.244-.359-.163-.658-.389-.897-.678-.239-.289-.419-.631-.538-1.027-.12-.395-.179-.829-.179-1.3 0-.498.065-.947.194-1.345.13-.399.315-.737.558-1.016.243-.279.535-.493.877-.643.342-.149.726-.224 1.151-.224.399 0 .767.07 1.106.209.339.14.633.34.882.603.249.262.443.578.583.947.139.369.209.782.209 1.241v.737h-3.577zm1.594-1.136c.006-.126-.002-.261-.025-.404-.023-.143-.065-.277-.124-.403-.06-.126-.143-.231-.249-.314-.106-.083-.239-.124-.399-.124-.146 0-.269.037-.369.11-.1.073-.181.169-.244.289-.063.12-.11.254-.14.404-.03.149-.045.297-.045.443h1.594zM133.024 32.426v-5.122l-.015-.618c-.01-.206-.028-.405-.055-.598h1.903l.055.244.015.214c.133-.173.314-.304.543-.394s.447-.135.653-.135c.259 0 .515.045.767.135s.472.271.658.543l-.628 1.535c-.146-.272-.316-.458-.508-.558s-.365-.15-.518-.15c-.259 0-.467.136-.623.409-.156.272-.234.598-.234.977v2.86c0 .206-.073.367-.219.483-.146.116-.326.174-.538.174h-1.256zM140.209 29.427l.04-.264.04-.264.797-2.84h2.083l-1.933 5.87c-.047.146-.124.266-.234.359-.11.093-.244.14-.404.14h-1.216l-2.123-6.368h2.073l.817 2.85.035.264.025.254zM145.45 24.823c0 .173-.05.302-.149.388-.1.086-.252.13-.458.13h-1.435v-1.824h2.043v1.306zm-2.023 7.603v-6.288h2.013v5.59c0 .206-.08.374-.239.503-.159.129-.346.194-.558.194h-1.216zM151.046 31.31c-.136.272-.312.495-.528.668-.216.173-.46.299-.733.379-.272.08-.545.12-.817.12-.937 0-1.641-.296-2.113-.887-.458-.585-.688-1.372-.688-2.362 0-.977.229-1.76.688-2.352.465-.584 1.166-.877 2.103-.877.292 0 .576.045.852.135.276.09.522.226.737.409.216.183.389.41.518.683.129.273.194.592.194.957h-1.893c0-.272-.051-.46-.155-.563-.103-.103-.217-.154-.344-.154-.193 0-.357.143-.493.428-.136.286-.204.731-.204 1.335 0 .651.065 1.115.194 1.39.129.276.311.414.543.414.113 0 .218-.05.314-.149.096-.1.151-.289.164-.568h1.864c0 .392-.068.724-.204.997zM153.413 29.736c0 .405.075.733.224.981.15.249.367.374.653.374l.239-.03c.08-.02.153-.056.219-.109s.123-.121.17-.204c.046-.083.076-.191.09-.324h1.993c-.027.319-.118.605-.274.857-.156.252-.357.468-.603.648-.246.179-.527.315-.842.408-.316.093-.643.14-.981.14-.478 0-.897-.081-1.256-.244-.359-.163-.658-.389-.897-.678-.239-.289-.419-.631-.538-1.027-.12-.395-.179-.829-.179-1.3 0-.498.065-.947.194-1.345.13-.399.315-.737.558-1.016.243-.279.535-.493.877-.643.342-.149.726-.224 1.151-.224.399 0 .767.07 1.106.209.339.14.633.34.882.603.249.262.443.578.583.947.14.369.209.782.209 1.241v.737h-3.577zm1.594-1.136c.006-.126-.002-.261-.025-.404-.023-.143-.065-.277-.124-.403-.06-.126-.143-.231-.249-.314-.106-.083-.239-.124-.399-.124-.146 0-.269.037-.369.11-.1.073-.181.169-.244.289-.063.12-.11.254-.139.404-.03.149-.045.297-.045.443h1.594z"/></g><linearGradient id="a" gradientUnits="userSpaceOnUse" x1="13.84" y1="17.948" x2="27.663" y2="31.771"><stop offset="0" stop-color="#E9582B"/><stop offset="1" stop-color="#F6CC6B"/></linearGradient><path d="M14.239 36.534s-11.658-.454-6.152-12.74c5.506-12.285 16.419-16.848 16.419-16.848l-.376 14.501-3.712 8.312-6.179 6.775z" fill="url(#a)"/><linearGradient id="b" gradientUnits="userSpaceOnUse" x1="21.342" y1="32.343" x2="3.54" y2="25.803"><stop offset="0" stop-color="#E73828"/><stop offset="1" stop-color="#F6CC6B"/></linearGradient><path d="M20.013 25.2s-.884-2.648-3.648-1.305c-2.764 1.343-5.906 2.064-7.003 10.235l1.997 2.224 5.926-2.143 3.041-4.151-.313-4.859z" fill="url(#b)"/><linearGradient id="c" gradientUnits="userSpaceOnUse" x1="3.731" y1="7.659" x2="16.326" y2="15.825"><stop offset="0" stop-color="#D94F27"/><stop offset="1" stop-color="#F19133"/></linearGradient><path d="M.78 17.361s-.164-9.111 9.542-10.059c0 0 5.538-.79 5.538-4.529 0 0 9.267 6.426 1.371 15.116-7.897 8.69-15.848 1.422-16.451-.527z" fill="url(#c)"/><linearGradient id="d" gradientUnits="userSpaceOnUse" x1="7.387" y1="12.788" x2="18.079" y2="16.94"><stop offset="0" stop-color="#F19431"/><stop offset="1" stop-color="#EC6D31"/></linearGradient><path d="M7.377 21.897c2.871.553 6.368-.172 9.854-4.009 3.244-3.57 3.591-6.758 2.874-9.275-4.581 1.715-11.893 3.195-12.729 13.284z" fill="url(#d)"/><linearGradient id="e" gradientUnits="userSpaceOnUse" x1="4.615" y1="20.883" x2="26.674" y2="25.606"><stop offset="0" stop-color="#EA592D"/><stop offset="1" stop-color="#EF8333"/></linearGradient><path d="M2.787 26.987s8.781-13.192 15.366-9.457c0 0 5.394 4.758-5.143 7.891 0 0-3.45.904-10.223 1.567z" fill="url(#e)"/><linearGradient id="f" gradientUnits="userSpaceOnUse" x1="20.246" y1="22.942" x2="-1.865" y2="21.8"><stop offset="0" stop-color="#EB6434"/><stop offset="1" stop-color="#EF8833"/></linearGradient><path d="M19.196 18.974c-2.307-.101-7.704.453-10.448 7.287 2.829-.444 4.261-.819 4.261-.819 6.921-2.058 6.969-4.817 6.186-6.468z" fill="url(#f)"/><linearGradient id="g" gradientUnits="userSpaceOnUse" x1="32.634" y1="25.384" x2="11.666" y2="10.92"><stop offset="0" stop-color="#EF8333"/><stop offset="1" stop-color="#EA612E"/></linearGradient><path d="M10.774 36.941s27.331 3.203 24.972-17.326c0 0-.65-3.387-2.29-7.207-.941-2.193-3.136-9.397 1.066-12.409 0 0-24.898 1.145-14.989 24.607 0 0 2.812 5.406-8.478 11.279 0 0-1.222.753-.282 1.054z" fill="url(#g)"/><linearGradient id="h" gradientUnits="userSpaceOnUse" x1="39.364" y1="23.224" x2="15.974" y2="14.089"><stop offset="0" stop-color="#E73828"/><stop offset="1" stop-color="#F6CC6B"/></linearGradient><path d="M35.733 19.646s-.65-3.387-2.29-7.206c-.941-2.193-3.136-9.397 1.066-12.409 0 0-12.921 6.242-2.947 21.659 0 0 5.927 10.808-11.841 15.161h.002c7.734-.951 17.456-4.614 16.01-17.205z" fill="url(#h)"/><linearGradient id="i" gradientUnits="userSpaceOnUse" x1="11.631" y1="35.513" x2="1.869" y2="35.513"><stop offset="0" stop-color="#ED7434"/><stop offset="1" stop-color="#EA6035"/></linearGradient><path d="M10.774 36.941h-5.739s1.317-3.615 4.829-2.711c0 0 2.708 1.04.91 2.711z" fill="url(#i)"/></svg>