<?xml version="1.0" encoding="utf-8"?>
<!-- Generator: Adobe Illustrator 22.1.0, SVG Export Plug-In . SVG Version: 6.00 Build 0)  -->
<svg version="1.1" id="레이어_1" xmlns="http://www.w3.org/2000/svg" xmlns:xlink="http://www.w3.org/1999/xlink" x="0px"
	 y="0px" width="169px" height="169px" viewBox="0 0 169 169" style="enable-background:new 0 0 169 169;" xml:space="preserve">
<g>
	<linearGradient id="SVGID_1_" gradientUnits="userSpaceOnUse" x1="61.5471916" y1="81.9681702" x2="123.5695419" y2="143.9905243">
		<stop  offset="0" style="stop-color:#E73828"/>
		<stop  offset="1" style="stop-color:#F6CC6B"/>
	</linearGradient>
	<path style="fill:url(#SVGID_1_);" d="M63.3373337,165.3615723c0,0-52.3093033-2.0386047-27.6030464-57.1637344
		c24.7066307-55.122921,73.6692352-75.5959473,73.6692352-75.5959473l-1.6888199,65.0655823l-16.6551666,37.2965469
		L63.3373337,165.3615723z"/>
	<linearGradient id="SVGID_2_" gradientUnits="userSpaceOnUse" x1="95.2103653" y1="146.5558472" x2="15.3344936" y2="117.2136154">
		<stop  offset="0" style="stop-color:#E73828"/>
		<stop  offset="1" style="stop-color:#F6CC6B"/>
	</linearGradient>
	<path style="fill:url(#SVGID_2_);" d="M89.2483978,114.5045776c0,0-3.9680176-11.8821564-16.3691177-5.8573837
		c-12.4001694,6.0274811-26.4973526,9.2586746-31.42136,45.9247818l8.9606743,9.9781647l26.5901413-9.6170197l13.6459503-18.6264343
		L89.2483978,114.5045776z"/>
	<linearGradient id="SVGID_3_" gradientUnits="userSpaceOnUse" x1="20.7395077" y1="38.7077713" x2="83.7703018" y2="79.6930161">
		<stop  offset="0" style="stop-color:#E73828"/>
		<stop  offset="1" style="stop-color:#F6CC6B"/>
	</linearGradient>
	<path style="fill:url(#SVGID_3_);" d="M2.9515254,79.336235c0,0-0.7377505-40.8815269,42.8114166-45.1351433
		c0,0,24.8498955-3.5440884,24.8498955-20.3220444c0,0,41.5806351,28.8302078,6.1516495,67.821434
		C41.3337402,120.6912537,5.658287,88.0813751,2.9515254,79.336235z"/>
	<linearGradient id="SVGID_4_" gradientUnits="userSpaceOnUse" x1="73.0730133" y1="81.8544006" x2="17.8718681" y2="26.6532555">
		<stop  offset="0" style="stop-color:#E73828"/>
		<stop  offset="1" style="stop-color:#F6CC6B"/>
	</linearGradient>
	<path style="fill:url(#SVGID_4_);" d="M32.5494766,99.6869736c12.8800812,2.4833908,28.570507-0.7714691,44.2150116-17.9864883
		c14.5538025-16.0174713,16.112114-30.3211708,12.8960037-41.6147156
		C69.1068802,47.7806396,36.298687,54.4230957,32.5494766,99.6869736z"/>
	<linearGradient id="SVGID_5_" gradientUnits="userSpaceOnUse" x1="20.1593914" y1="95.1351852" x2="119.1322556" y2="116.3269348">
		<stop  offset="0" style="stop-color:#E73828"/>
		<stop  offset="1" style="stop-color:#F6CC6B"/>
	</linearGradient>
	<path style="fill:url(#SVGID_5_);" d="M11.9554348,122.5233307c0,0,39.3969955-59.1909676,68.944458-42.4338913
		c0,0,24.2008209,21.3495026-23.0751953,35.4048615C57.8246994,115.4943008,42.3471222,119.5495987,11.9554348,122.5233307z"/>
	<linearGradient id="SVGID_6_" gradientUnits="userSpaceOnUse" x1="90.2897263" y1="104.3752747" x2="-8.9158783" y2="99.2519913">
		<stop  offset="0" style="stop-color:#E73828"/>
		<stop  offset="1" style="stop-color:#F6CC6B"/>
	</linearGradient>
	<path style="fill:url(#SVGID_6_);" d="M85.5819092,86.5730896c-10.3516083-0.4520645-34.5674324,2.0303955-46.8771515,32.6972351
		c12.6953621-1.9939651,19.1204071-3.6759796,19.1204071-3.6759796
		C88.880455,106.3611908,89.0923691,93.981514,85.5819092,86.5730896z"/>
	<linearGradient id="SVGID_7_" gradientUnits="userSpaceOnUse" x1="74.2144928" y1="84.7191772" x2="145.0838318" y2="84.7191772">
		<stop  offset="0" style="stop-color:#E73828"/>
		<stop  offset="1" style="stop-color:#F6CC6B"/>
	</linearGradient>
	<path style="fill:url(#SVGID_7_);" d="M47.7910118,167.1872253c0,0,122.6277313,14.3701172,112.045578-77.7368164
		c0,0-2.9186859-15.1973801-10.2743073-32.334713c-4.2231293-9.8390007-14.070343-42.1632767,4.7843933-55.6773376
		c0,0-111.7125626,5.1360288-67.2533188,110.4090195c0,0,12.6148834,24.2555008-38.0383911,50.6086655
		C49.0549698,162.4560394,43.5701866,165.8355255,47.7910118,167.1872253z"/>
	<linearGradient id="SVGID_8_" gradientUnits="userSpaceOnUse" x1="96.3542709" y1="84.3643951" x2="158.2991486" y2="83.8986435">
		<stop  offset="0" style="stop-color:#E73828"/>
		<stop  offset="1" style="stop-color:#F6CC6B"/>
	</linearGradient>
	<path style="fill:url(#SVGID_8_);" d="M159.7801361,89.5859375c0,0-2.9182129-15.1983109-10.2733612-32.3337746
		c-4.222229-9.8390007-14.0703583-42.1632767,4.7835541-55.6773415c0,0-57.9733124,28.0088081-13.2248383,97.1806488
		c0,0,26.5951691,48.4954453-53.1279984,68.0260849h0.0105286
		C122.6510773,162.5161133,166.2711334,146.0783386,159.7801361,89.5859375z"/>
	<linearGradient id="SVGID_9_" gradientUnits="userSpaceOnUse" x1="51.6390762" y1="160.7801666" x2="7.835484" y2="160.7801666">
		<stop  offset="0" style="stop-color:#E73828"/>
		<stop  offset="1" style="stop-color:#F6CC6B"/>
	</linearGradient>
	<path style="fill:url(#SVGID_9_);" d="M47.7910118,167.1872253h-25.750473c0,0,5.9091778-16.2184906,21.6683464-12.1631927
		C43.7088852,155.0240326,55.8593178,159.6906738,47.7910118,167.1872253z"/>
</g>
<linearGradient id="SVGID_10_" gradientUnits="userSpaceOnUse" x1="51.6390762" y1="160.7801666" x2="7.835484" y2="160.7801666">
	<stop  offset="0" style="stop-color:#ED7434"/>
	<stop  offset="1" style="stop-color:#EA6035"/>
</linearGradient>
<path style="fill:url(#SVGID_10_);" d="M47.7910118,167.1872253h-25.750473c0,0,5.9091778-16.2184906,21.6683464-12.1631927
	C43.7088852,155.0240326,55.8593178,159.6906738,47.7910118,167.1872253z"/>
</svg>
